<svg xmlns="http://www.w3.org/2000/svg" xmlns:xlink="http://www.w3.org/1999/xlink" width="1102.406" height="1257.762" viewBox="0 0 291.678 332.783"><defs><path id="prefix__b" fill="#ffc107" stroke-width=".49" d="M-260.89-197.622l-.028-10.331 8.929 2.17h-5.245v2.836l2.979.39.022 1.87-3.001-.612.15 2.82 4.146 1.586.045 2.579z" aria-label="E" font-size="17.72" font-weight="700" style="-inkscape-font-specification:&quot;Inconsolata Bold&quot;;text-align:center"/><path id="prefix__c" fill="#3949ab" stroke-width=".967" d="M271.172 121.929a8.543 8.543 0 01-3.358-.665c-1.026-.443-1.935-1.119-2.728-2.028-.793-.91-1.422-2.064-1.889-3.463-.443-1.399-.664-3.066-.664-5.001 0-1.702.163-3.183.49-4.442.35-1.283.816-2.355 1.399-3.218.582-.886 1.247-1.585 1.993-2.098a7.564 7.564 0 012.343-1.155 8.127 8.127 0 012.449-.384c1.632 0 3.02.384 4.162 1.154 1.166.746 0 0 0 0 .043.027-.595 3.357-.595 3.357-.864-.43-.756-.404-1.644-.773a5.72 5.72 0 00-1.988-.401c-.747 0-1.234 0-1.929.02-.653.35-1.224.875-1.714 1.574-.49.7-.874 1.574-1.154 2.623-.28 1.026-.42 2.215-.42 3.568 0 1.306.129 2.483.385 3.532.28 1.026.653 1.912 1.12 2.658.489.723 1.049 1.283 1.678 1.68a4.174 4.174 0 002.099.559c.583 0 2.376-.002 2.866-.165.49-.164 8.659-.767 9.078-1.14.42-.396-.326.536 0 0-.77 1.283-6.45 2.922-7.523 3.505-1.128.262-2.987.703-4.456.703z" aria-label="C" font-size="34.975" font-weight="600" style="-inkscape-font-specification:&quot;Inconsolata Semi-Bold&quot;;text-align:center"/><path id="prefix__e" stroke-width=".49" d="M-260.89-197.622l-.028-10.331 8.929 2.17h-5.245v2.836l2.979.39.022 1.87-3.001-.612.15 2.82 4.146 1.586.045 2.579z" aria-label="E" font-size="17.72" font-weight="700" style="-inkscape-font-specification:&quot;Inconsolata Bold&quot;;text-align:center"/><path id="prefix__f" stroke-width=".967" d="M271.172 121.929a8.543 8.543 0 01-3.358-.665c-1.026-.443-1.935-1.119-2.728-2.028-.793-.91-1.422-2.064-1.889-3.463-.443-1.399-.664-3.066-.664-5.001 0-1.702.163-3.183.49-4.442.35-1.283.816-2.355 1.399-3.218.582-.886 1.247-1.585 1.993-2.098a7.564 7.564 0 012.343-1.155 8.127 8.127 0 012.449-.384c1.632 0 3.02.384 4.162 1.154 1.166.746 0 0 0 0 .043.027-.595 3.357-.595 3.357-.864-.43-.756-.404-1.644-.773a5.72 5.72 0 00-1.988-.401c-.747 0-1.234 0-1.929.02-.653.35-1.224.875-1.714 1.574-.49.7-.874 1.574-1.154 2.623-.28 1.026-.42 2.215-.42 3.568 0 1.306.129 2.483.385 3.532.28 1.026.653 1.912 1.12 2.658.489.723 1.049 1.283 1.678 1.68a4.174 4.174 0 002.099.559c.583 0 2.376-.002 2.866-.165.49-.164 8.659-.767 9.078-1.14.42-.396-.326.536 0 0-.77 1.283-6.45 2.922-7.523 3.505-1.128.262-2.987.703-4.456.703z" aria-label="C" font-size="34.975" font-weight="600" style="-inkscape-font-specification:&quot;Inconsolata Semi-Bold&quot;;text-align:center"/></defs><defs><filter id="prefix__a" width="1.028" height="1.035" x="-.018" y="-.009" color-interpolation-filters="sRGB"><feFlood flood-color="#FFF" flood-opacity=".118" result="flood"/><feComposite in="flood" in2="SourceGraphic" operator="in" result="composite1"/><feGaussianBlur in="composite1" result="blur" stdDeviation=".1"/><feOffset dx="-.2" dy=".5" result="offset"/><feComposite in="SourceGraphic" in2="offset" result="composite2"/></filter><filter id="prefix__d" width="1.028" height="1.035" x="-.018" y="-.009" color-interpolation-filters="sRGB"><feFlood flood-color="#FFF" flood-opacity=".118" result="flood"/><feComposite in="flood" in2="SourceGraphic" operator="in" result="composite1"/><feGaussianBlur in="composite1" result="blur" stdDeviation=".1"/><feOffset dx="-.2" dy=".5" result="offset"/><feComposite in="SourceGraphic" in2="offset" result="composite2"/></filter><filter id="prefix__g" width="1.028" height="1.035" x="-.018" y="-.009" color-interpolation-filters="sRGB"><feFlood flood-color="#FFF" flood-opacity=".357" result="flood"/><feComposite in="flood" in2="SourceGraphic" operator="in" result="composite1"/><feGaussianBlur in="composite1" result="blur" stdDeviation=".1"/><feOffset dx="-.2" dy=".5" result="offset"/><feComposite in="SourceGraphic" in2="offset" result="composite2"/></filter><filter id="prefix__h" width="1.028" height="1.035" x="-.018" y="-.009" color-interpolation-filters="sRGB"><feFlood flood-color="#FFF" flood-opacity=".118" result="flood"/><feComposite in="flood" in2="SourceGraphic" operator="in" result="composite1"/><feGaussianBlur in="composite1" result="blur" stdDeviation=".1"/><feOffset dx="-.2" dy=".5" result="offset"/><feComposite in="SourceGraphic" in2="offset" result="composite2"/></filter></defs><g transform="translate(1798.66 921.8) scale(8.53333)"><rect width="39.688" height="39.688" x="-341.746" y="-108.713" fill="#1a1a1a" ry="0"/><g filter="url(#prefix__a)" font-family="Inconsolata" text-anchor="middle"><text x="-327.181" y="-78.196" fill="#43a047" stroke-width=".8" font-size="28.928" font-weight="700" style="-inkscape-font-specification:&quot;Inconsolata Bold&quot;;text-align:center"><tspan x="-327.181" y="-78.196" font-weight="600" style="-inkscape-font-specification:&quot;Inconsolata Semi-Bold&quot;">{</tspan></text><use xlink:href="#prefix__b" stroke-width=".49" aria-label="E" font-size="17.72" font-weight="700" style="-inkscape-font-specification:&quot;Inconsolata Bold&quot;;text-align:center" transform="rotate(-23.697)"/><use xlink:href="#prefix__c" stroke-width=".967" aria-label="C" font-size="34.975" font-weight="600" style="-inkscape-font-specification:&quot;Inconsolata Semi-Bold&quot;;text-align:center" transform="scale(-1.17953 -.8478)"/></g></g><g filter="url(#prefix__d)" font-family="Inconsolata" text-anchor="middle" transform="translate(3291.145 -75.714) scale(12.15672)"><text x="-321.628" y="31.057" stroke-width=".8" font-size="28.928" font-weight="700" style="-inkscape-font-specification:&quot;Inconsolata Bold&quot;;text-align:center"><tspan x="-321.628" y="31.057" font-weight="600" style="-inkscape-font-specification:&quot;Inconsolata Semi-Bold&quot;">{</tspan></text><use xlink:href="#prefix__e" stroke-width=".49" aria-label="E" font-size="17.72" font-weight="700" style="-inkscape-font-specification:&quot;Inconsolata Bold&quot;;text-align:center" transform="rotate(-23.697 263.16 41.392)"/><use xlink:href="#prefix__f" stroke-width=".967" aria-label="C" font-size="34.975" font-weight="600" style="-inkscape-font-specification:&quot;Inconsolata Semi-Bold&quot;;text-align:center" transform="matrix(-1.17953 0 0 -.8478 5.553 109.253)"/></g><g fill="#fefefe" filter="url(#prefix__g)" font-family="Inconsolata" text-anchor="middle" transform="translate(3642.842 -76.552) scale(12.15672)"><text x="-321.628" y="31.057" stroke-width=".8" font-size="28.928" font-weight="700" style="-inkscape-font-specification:&quot;Inconsolata Bold&quot;;text-align:center"><tspan x="-321.628" y="31.057" font-weight="600" style="-inkscape-font-specification:&quot;Inconsolata Semi-Bold&quot;">{</tspan></text><use xlink:href="#prefix__e" stroke-width=".49" aria-label="E" font-size="17.72" font-weight="700" style="-inkscape-font-specification:&quot;Inconsolata Bold&quot;;text-align:center" transform="rotate(-23.697 263.16 41.392)"/><use xlink:href="#prefix__f" stroke-width=".967" aria-label="C" font-size="34.975" font-weight="600" style="-inkscape-font-specification:&quot;Inconsolata Semi-Bold&quot;;text-align:center" transform="matrix(-1.17953 0 0 -.8478 5.553 109.253)"/></g><g filter="url(#prefix__h)" font-family="Inconsolata" text-anchor="middle" transform="translate(3879.457 1201.372) scale(11.59502)"><text x="-327.181" y="-78.196" fill="#43a047" stroke-width=".8" font-size="28.928" font-weight="700" style="-inkscape-font-specification:&quot;Inconsolata Bold&quot;;text-align:center"><tspan x="-327.181" y="-78.196" font-weight="600" style="-inkscape-font-specification:&quot;Inconsolata Semi-Bold&quot;">{</tspan></text><use xlink:href="#prefix__b" stroke-width=".49" aria-label="E" font-size="17.72" font-weight="700" style="-inkscape-font-specification:&quot;Inconsolata Bold&quot;;text-align:center" transform="rotate(-23.697)"/><use xlink:href="#prefix__c" stroke-width=".967" aria-label="C" font-size="34.975" font-weight="600" style="-inkscape-font-specification:&quot;Inconsolata Semi-Bold&quot;;text-align:center" transform="scale(-1.17953 -.8478)"/></g></svg>