<svg xmlns="http://www.w3.org/2000/svg" xmlns:inkscape="http://www.inkscape.org/namespaces/inkscape" xmlns:sodipodi="http://sodipodi.sourceforge.net/DTD/sodipodi-0.dtd" xmlns:xlink="http://www.w3.org/1999/xlink" inkscape:export-filename="parts/P.png" inkscape:export-xdpi="96" inkscape:export-ydpi="96" inkscape:version="1.2.2 (b0a8486541, 2022-12-01)" sodipodi:docname="LogosREP2025.svg" width="1102.406" height="1257.762" viewBox="0 0 291.678 332.783">
  <defs>
    <path sodipodi:nodetypes="ccccccccccccc" id="reuse-0" fill="#ffc107" stroke-width=".49" d="m-260.89-197.622-.028-10.331 8.929 2.17h-5.245v2.836l2.979.39.022 1.87-3.001-.612.15 2.82 4.146 1.586.045 2.579z" aria-label="E" font-size="17.72" font-weight="700" style="-inkscape-font-specification:&quot;Inconsolata Bold&quot;;text-align:center"/>
    <path sodipodi:nodetypes="scscsccccscccccccsscscscccssccccss" id="reuse-1" fill="#3949ab" stroke-width=".967" d="M271.172 121.929a8.543 8.543 0 0 1-3.358-.665c-1.026-.443-1.935-1.119-2.728-2.028-.793-.91-1.422-2.064-1.889-3.463-.443-1.399-.664-3.066-.664-5.001 0-1.702.163-3.183.49-4.442.35-1.283.816-2.355 1.399-3.218.582-.886 1.247-1.585 1.993-2.098a7.564 7.564 0 0 1 2.343-1.155 8.127 8.127 0 0 1 2.449-.384c1.632 0 3.02.384 4.162 1.154 1.166.746 0 0 0 0 .043.027-.595 3.357-.595 3.357-.864-.43-.756-.404-1.644-.773a5.72 5.72 0 0 0-1.988-.401c-.747 0-1.234 0-1.929.02-.653.35-1.224.875-1.714 1.574-.49.7-.874 1.574-1.154 2.623-.28 1.026-.42 2.215-.42 3.568 0 1.306.129 2.483.385 3.532.28 1.026.653 1.912 1.12 2.658.489.723 1.049 1.283 1.678 1.68.653.372 1.353.559 2.099.559.583 0 2.376-.002 2.866-.165.49-.164 8.659-.767 9.078-1.14.42-.396-.326.536 0 0-.77 1.283-6.45 2.922-7.523 3.505-1.128.262-2.987.703-4.456.703z" aria-label="C" font-size="34.975" font-weight="600" style="-inkscape-font-specification:&quot;Inconsolata Semi-Bold&quot;;text-align:center"/>
    <path sodipodi:nodetypes="ccccccccccccc" id="reuse-2" stroke-width=".49" d="m-260.89-197.622-.028-10.331 8.929 2.17h-5.245v2.836l2.979.39.022 1.87-3.001-.612.15 2.82 4.146 1.586.045 2.579z" aria-label="E" font-size="17.72" font-weight="700" style="-inkscape-font-specification:&quot;Inconsolata Bold&quot;;text-align:center"/>
    <path sodipodi:nodetypes="scscsccccscccccccsscscscccssccccss" id="reuse-3" stroke-width=".967" d="M271.172 121.929a8.543 8.543 0 0 1-3.358-.665c-1.026-.443-1.935-1.119-2.728-2.028-.793-.91-1.422-2.064-1.889-3.463-.443-1.399-.664-3.066-.664-5.001 0-1.702.163-3.183.49-4.442.35-1.283.816-2.355 1.399-3.218.582-.886 1.247-1.585 1.993-2.098a7.564 7.564 0 0 1 2.343-1.155 8.127 8.127 0 0 1 2.449-.384c1.632 0 3.02.384 4.162 1.154 1.166.746 0 0 0 0 .043.027-.595 3.357-.595 3.357-.864-.43-.756-.404-1.644-.773a5.72 5.72 0 0 0-1.988-.401c-.747 0-1.234 0-1.929.02-.653.35-1.224.875-1.714 1.574-.49.7-.874 1.574-1.154 2.623-.28 1.026-.42 2.215-.42 3.568 0 1.306.129 2.483.385 3.532.28 1.026.653 1.912 1.12 2.658.489.723 1.049 1.283 1.678 1.68.653.372 1.353.559 2.099.559.583 0 2.376-.002 2.866-.165.49-.164 8.659-.767 9.078-1.14.42-.396-.326.536 0 0-.77 1.283-6.45 2.922-7.523 3.505-1.128.262-2.987.703-4.456.703z" aria-label="C" font-size="34.975" font-weight="600" style="-inkscape-font-specification:&quot;Inconsolata Semi-Bold&quot;;text-align:center"/>
  </defs>
  <sodipodi:namedview inkscape:current-layer="g7350-8-6" inkscape:cx="6736.038" inkscape:cy="1570.206" inkscape:deskcolor="#d1d1d1" inkscape:document-units="px" inkscape:pagecheckerboard="0" inkscape:pageopacity="0" inkscape:showpageshadow="2" inkscape:window-height="868" inkscape:window-maximized="1" inkscape:window-width="1440" inkscape:window-x="0" inkscape:window-y="0" inkscape:zoom=".174" bordercolor="#000000" borderopacity=".25" pagecolor="#cccccf" showgrid="false" showguides="true">
    <sodipodi:guide inkscape:locked="false" orientation="0,-1" position="-778.90352,338.66651"/>
    <sodipodi:guide inkscape:locked="false" orientation="0,-1" position="-561.82914,279.92596"/>
    <sodipodi:guide inkscape:locked="false" orientation="0,-1" position="-581.38143,152.06805"/>
    <sodipodi:guide inkscape:locked="false" orientation="0,-1" position="-778.90352,-0.00014796048"/>
    <sodipodi:guide inkscape:locked="false" orientation="0,-1" position="-668.91346,-31.222858"/>
    <sodipodi:guide inkscape:locked="false" orientation="0,-1" position="-668.91346,-139.94386"/>
  </sodipodi:namedview>
  <defs>
    <filter inkscape:label="Drop Shadow" id="a" width="1.028" height="1.035" x="-.018" y="-.009" color-interpolation-filters="sRGB">
      <feFlood flood-color="#FFF" flood-opacity=".118" result="flood"/>
      <feComposite in="flood" in2="SourceGraphic" operator="in" result="composite1"/>
      <feGaussianBlur in="composite1" result="blur" stdDeviation=".1"/>
      <feOffset dx="-.2" dy=".5" result="offset"/>
      <feComposite in="SourceGraphic" in2="offset" result="composite2"/>
    </filter>
    <filter inkscape:label="Drop Shadow" id="b" width="1.028" height="1.035" x="-.018" y="-.009" color-interpolation-filters="sRGB">
      <feFlood flood-color="#FFF" flood-opacity=".118" result="flood"/>
      <feComposite in="flood" in2="SourceGraphic" operator="in" result="composite1"/>
      <feGaussianBlur in="composite1" result="blur" stdDeviation=".1"/>
      <feOffset dx="-.2" dy=".5" result="offset"/>
      <feComposite in="SourceGraphic" in2="offset" result="composite2"/>
    </filter>
    <filter inkscape:label="Drop Shadow" id="c" width="1.028" height="1.035" x="-.018" y="-.009" color-interpolation-filters="sRGB">
      <feFlood flood-color="#FFF" flood-opacity=".357" result="flood"/>
      <feComposite in="flood" in2="SourceGraphic" operator="in" result="composite1"/>
      <feGaussianBlur in="composite1" result="blur" stdDeviation=".1"/>
      <feOffset dx="-.2" dy=".5" result="offset"/>
      <feComposite in="SourceGraphic" in2="offset" result="composite2"/>
    </filter>
    <filter inkscape:label="Drop Shadow" id="d" width="1.028" height="1.035" x="-.018" y="-.009" color-interpolation-filters="sRGB">
      <feFlood flood-color="#FFF" flood-opacity=".118" result="flood"/>
      <feComposite in="flood" in2="SourceGraphic" operator="in" result="composite1"/>
      <feGaussianBlur in="composite1" result="blur" stdDeviation=".1"/>
      <feOffset dx="-.2" dy=".5" result="offset"/>
      <feComposite in="SourceGraphic" in2="offset" result="composite2"/>
    </filter>
  </defs>
  <g inkscape:groupmode="layer" inkscape:label="Capa 1" sodipodi:insensitive="true">
    <g inkscape:label="Mono" sodipodi:insensitive="true">
      <g inkscape:export-filename="Logos/Mono.png" inkscape:export-xdpi="96" inkscape:export-ydpi="96" inkscape:label="MonogramaColor" transform="matrix(8.53333 0 0 8.53333 1798.66 921.8)">
        <rect width="39.688" height="39.688" x="-341.746" y="-108.713" fill="#1a1a1a" ry="0"/>
        <g filter="url(#a)" font-family="Inconsolata" text-anchor="middle">
          <text xml:space="preserve" x="-327.181" y="-78.196" fill="#43a047" stroke-width=".8" font-size="28.928" font-weight="700" style="-inkscape-font-specification:&quot;Inconsolata Bold&quot;;text-align:center"><tspan sodipodi:role="line" x="-327.181" y="-78.196" font-weight="600" style="-inkscape-font-specification:&quot;Inconsolata Semi-Bold&quot;">{</tspan></text>
          <use sodipodi:nodetypes="ccccccccccccc" xlink:href="#reuse-0" stroke-width=".49" aria-label="E" font-size="17.72" font-weight="700" style="-inkscape-font-specification:&quot;Inconsolata Bold&quot;;text-align:center" transform="rotate(-23.697)"/>
          <use sodipodi:nodetypes="scscsccccscccccccsscscscccssccccss" xlink:href="#reuse-1" stroke-width=".967" aria-label="C" font-size="34.975" font-weight="600" style="-inkscape-font-specification:&quot;Inconsolata Semi-Bold&quot;;text-align:center" transform="scale(-1.17953 -.8478)"/>
        </g>
      </g>
      <g inkscape:export-filename="Logos/MonoBlack.png" inkscape:export-xdpi="96" inkscape:export-ydpi="96" inkscape:label="MonoBlack" filter="url(#b)" font-family="Inconsolata" text-anchor="middle" transform="translate(3291.145 -75.714) scale(12.15672)">
        <text xml:space="preserve" x="-321.628" y="31.057" stroke-width=".8" font-size="28.928" font-weight="700" style="-inkscape-font-specification:&quot;Inconsolata Bold&quot;;text-align:center"><tspan sodipodi:role="line" x="-321.628" y="31.057" font-weight="600" style="-inkscape-font-specification:&quot;Inconsolata Semi-Bold&quot;">{</tspan></text>
        <use sodipodi:nodetypes="ccccccccccccc" xlink:href="#reuse-2" stroke-width=".49" aria-label="E" font-size="17.72" font-weight="700" style="-inkscape-font-specification:&quot;Inconsolata Bold&quot;;text-align:center" transform="rotate(-23.697 263.16 41.392)"/>
        <use sodipodi:nodetypes="scscsccccscccccccsscscscccssccccss" xlink:href="#reuse-3" stroke-width=".967" aria-label="C" font-size="34.975" font-weight="600" style="-inkscape-font-specification:&quot;Inconsolata Semi-Bold&quot;;text-align:center" transform="matrix(-1.17953 0 0 -.8478 5.553 109.253)"/>
      </g>
      <g inkscape:export-filename="Logos/MonoWhite.png" inkscape:export-xdpi="96" inkscape:export-ydpi="96" inkscape:label="MonoWhite" fill="#fefefe" filter="url(#c)" font-family="Inconsolata" text-anchor="middle" transform="translate(3642.842 -76.552) scale(12.15672)">
        <text xml:space="preserve" x="-321.628" y="31.057" stroke-width=".8" font-size="28.928" font-weight="700" style="-inkscape-font-specification:&quot;Inconsolata Bold&quot;;text-align:center"><tspan sodipodi:role="line" x="-321.628" y="31.057" font-weight="600" style="-inkscape-font-specification:&quot;Inconsolata Semi-Bold&quot;">{</tspan></text>
        <use sodipodi:nodetypes="ccccccccccccc" xlink:href="#reuse-2" stroke-width=".49" aria-label="E" font-size="17.72" font-weight="700" style="-inkscape-font-specification:&quot;Inconsolata Bold&quot;;text-align:center" transform="rotate(-23.697 263.16 41.392)"/>
        <use sodipodi:nodetypes="scscsccccscccccccsscscscccssccccss" xlink:href="#reuse-3" stroke-width=".967" aria-label="C" font-size="34.975" font-weight="600" style="-inkscape-font-specification:&quot;Inconsolata Semi-Bold&quot;;text-align:center" transform="matrix(-1.17953 0 0 -.8478 5.553 109.253)"/>
      </g>
      <g inkscape:export-filename="Logos/MonoFullColor.png" inkscape:export-xdpi="96" inkscape:export-ydpi="96" inkscape:label="MonoFullColor" filter="url(#d)" font-family="Inconsolata" text-anchor="middle" transform="matrix(11.59502 0 0 11.59502 3879.457 1201.372)">
        <text xml:space="preserve" x="-327.181" y="-78.196" fill="#43a047" stroke-width=".8" font-size="28.928" font-weight="700" style="-inkscape-font-specification:&quot;Inconsolata Bold&quot;;text-align:center"><tspan sodipodi:role="line" x="-327.181" y="-78.196" font-weight="600" style="-inkscape-font-specification:&quot;Inconsolata Semi-Bold&quot;">{</tspan></text>
        <use sodipodi:nodetypes="ccccccccccccc" xlink:href="#reuse-0" stroke-width=".49" aria-label="E" font-size="17.72" font-weight="700" style="-inkscape-font-specification:&quot;Inconsolata Bold&quot;;text-align:center" transform="rotate(-23.697)"/>
        <use sodipodi:nodetypes="scscsccccscccccccsscscscccssccccss" xlink:href="#reuse-1" stroke-width=".967" aria-label="C" font-size="34.975" font-weight="600" style="-inkscape-font-specification:&quot;Inconsolata Semi-Bold&quot;;text-align:center" transform="scale(-1.17953 -.8478)"/>
      </g>
    </g>
  </g>
</svg>
