<svg width="1102.4" height="1257.8" version="1.1" viewBox="0 0 291.68 332.79" xmlns="http://www.w3.org/2000/svg" xmlns:xlink="http://www.w3.org/1999/xlink">
 <defs>
  <path id="prefix__b" d="m-260.89-197.62-0.028-10.331 8.929 2.17h-5.245v2.836l2.979 0.39 0.022 1.87-3.001-0.612 0.15 2.82 4.146 1.586 0.045 2.579z" fill="#ffc107" font-size="17.72px" font-weight="700" stroke-width=".49" aria-label="E"/>
  <path id="prefix__c" d="m271.17 121.93a8.543 8.543 0 0 1-3.358-0.665c-1.026-0.443-1.935-1.119-2.728-2.028-0.793-0.91-1.422-2.064-1.889-3.463-0.443-1.399-0.664-3.066-0.664-5.001 0-1.702 0.163-3.183 0.49-4.442 0.35-1.283 0.816-2.355 1.399-3.218 0.582-0.886 1.247-1.585 1.993-2.098a7.564 7.564 0 0 1 2.343-1.155 8.127 8.127 0 0 1 2.449-0.384c1.632 0 3.02 0.384 4.162 1.154 1.166 0.746 0 0 0 0 0.043 0.027-0.595 3.357-0.595 3.357-0.864-0.43-0.756-0.404-1.644-0.773a5.72 5.72 0 0 0-1.988-0.401c-0.747 0-1.234 0-1.929 0.02-0.653 0.35-1.224 0.875-1.714 1.574-0.49 0.7-0.874 1.574-1.154 2.623-0.28 1.026-0.42 2.215-0.42 3.568 0 1.306 0.129 2.483 0.385 3.532 0.28 1.026 0.653 1.912 1.12 2.658 0.489 0.723 1.049 1.283 1.678 1.68a4.174 4.174 0 0 0 2.099 0.559c0.583 0 2.376-2e-3 2.866-0.165 0.49-0.164 8.659-0.767 9.078-1.14 0.42-0.396-0.326 0.536 0 0-0.77 1.283-6.45 2.922-7.523 3.505-1.128 0.262-2.987 0.703-4.456 0.703z" fill="#3949ab" font-size="34.975px" font-weight="600" stroke-width=".967" aria-label="C"/>
 </defs>
 <defs>
  <filter id="prefix__h" x="-.017977" y="-.0086576" width="1.0278" height="1.0354" color-interpolation-filters="sRGB">
   <feFlood flood-color="#FFF" flood-opacity=".118" result="flood"/>
   <feComposite in="flood" in2="SourceGraphic" operator="in" result="composite1"/>
   <feGaussianBlur in="composite1" result="blur" stdDeviation=".1"/>
   <feOffset dx="-.2" dy=".5" result="offset"/>
   <feComposite in="SourceGraphic" in2="offset" result="composite2"/>
  </filter>
 </defs>
 <g transform="matrix(11.595 0 0 11.595 3879.5 1201.4)" filter="url(#prefix__h)" font-family="Inconsolata" text-anchor="middle">
  <text x="-327.181" y="-78.195999" fill="#43a047" font-size="28.928px" font-weight="700" stroke-width=".8" text-align="center"><tspan x="-327.181" y="-78.195999" font-weight="600">{</tspan></text>
  <use transform="rotate(-23.697)" font-size="17.72px" font-weight="700" stroke-width=".49" text-align="center" aria-label="E" xlink:href="#prefix__b"/>
  <use transform="scale(-1.1795 -.8478)" font-size="34.975px" font-weight="600" stroke-width=".967" text-align="center" aria-label="C" xlink:href="#prefix__c"/>
 </g>
</svg>
